<svg width="550" height="550" viewBox="0 0 550 550" fill="none" xmlns="http://www.w3.org/2000/svg">
<rect width="550" height="550" fill="black"/>
<path d="M317.977 97.9C317.977 98.042 318.048 99.107 318.19 101.095L306.049 102.16L260.467 196.732V242.953L276.016 243.805C276.016 243.947 275.945 245.012 275.803 247L233.203 247.213C233.203 245.935 233.274 244.941 233.416 244.231L244.492 242.74C245.912 242.598 246.764 241.675 247.048 239.971V196.732L199.123 103.225C198.555 102.799 197.987 102.444 197.419 102.16L188.473 101.308C188.331 100.456 188.26 99.391 188.26 98.113L231.286 97.9C231.286 98.042 231.357 99.107 231.499 101.095L214.033 102.586L258.124 193.111L297.955 105.781C297.955 104.077 297.316 103.154 296.038 103.012L276.655 101.308C276.513 100.456 276.442 99.391 276.442 98.113L317.977 97.9Z" fill="white"/>
<path d="M263.65 142.095L263.863 138.9H309.445C340.117 138.9 355.453 150.899 355.453 174.897C355.453 184.127 349.347 194.209 337.135 205.143C355.169 209.545 364.186 222.467 364.186 243.909C364.186 260.665 359.926 272.238 351.406 278.628C343.028 284.876 330.106 288 312.64 288H306.463L263.65 288.213L263.863 285.231L274.939 283.74C276.359 283.598 277.211 282.675 277.495 280.971V146.355C277.211 144.509 276.359 143.515 274.939 143.373L263.65 142.095ZM316.9 206.421H291.979V284.805H311.575C336.993 284.805 349.702 271.457 349.702 244.761C349.702 231.129 346.933 221.331 341.395 215.367C335.999 209.403 327.834 206.421 316.9 206.421ZM317.965 203.226C323.219 203.226 327.763 203.51 331.597 204.078C337.845 194.28 340.969 184.979 340.969 176.175C340.969 153.455 330.106 142.095 308.38 142.095H291.979V203.226H317.965Z" fill="white"/>
<path d="M146.837 353.9C146.837 353.935 146.855 354.2 146.89 354.695L143.869 354.96L132.527 378.492V389.993L136.396 390.205C136.396 390.24 136.378 390.505 136.343 391L125.743 391.053C125.743 390.735 125.761 390.488 125.796 390.311L128.552 389.94C128.905 389.905 129.117 389.675 129.188 389.251V378.492L117.263 355.225C117.122 355.119 116.98 355.031 116.839 354.96L114.613 354.748C114.578 354.536 114.56 354.271 114.56 353.953L125.266 353.9C125.266 353.935 125.284 354.2 125.319 354.695L120.973 355.066L131.944 377.591L141.855 355.861C141.855 355.437 141.696 355.207 141.378 355.172L136.555 354.748C136.52 354.536 136.502 354.271 136.502 353.953L146.837 353.9ZM142.101 391.053L142.154 390.311L144.91 389.94C145.158 389.905 145.37 389.675 145.546 389.251L156.994 353.9H160.492L172.682 389.993L176.339 390.205C176.339 390.24 176.322 390.505 176.286 391L165.686 391.053C165.686 390.735 165.704 390.488 165.739 390.311L168.495 389.94C168.778 389.905 168.919 389.693 168.919 389.304L166.004 380.665H149.468L146.659 389.887L152.807 390.205C152.807 390.24 152.79 390.505 152.754 391L142.101 391.053ZM157.365 354.907L149.786 379.605H165.633L157.365 354.907ZM178.692 354.695L178.745 353.9H186.006L206.623 389.516L206.358 355.755C206.217 355.402 206.022 355.207 205.775 355.172L200.899 354.748C200.864 354.536 200.846 354.271 200.846 353.953L210.916 353.9C210.916 353.935 210.934 354.2 210.969 354.695L207.577 355.066V391H203.708L183.091 355.384L183.356 389.887L189.398 390.205C189.398 390.24 189.38 390.505 189.345 391L178.692 391.053L178.745 390.311L181.501 389.94C181.854 389.905 182.066 389.675 182.137 389.251V355.702C182.066 355.278 181.854 355.048 181.501 355.013L178.692 354.695ZM213.656 391.053L213.709 390.311L216.465 389.94C216.712 389.905 216.924 389.675 217.101 389.251L228.549 353.9H232.047L244.237 389.993L247.894 390.205C247.894 390.24 247.876 390.505 247.841 391L237.241 391.053C237.241 390.735 237.258 390.488 237.294 390.311L240.05 389.94C240.332 389.905 240.474 389.693 240.474 389.304L237.559 380.665H221.023L218.214 389.887L224.362 390.205C224.362 390.24 224.344 390.505 224.309 391L213.656 391.053ZM228.92 354.907L221.341 379.605H237.188L228.92 354.907ZM267.914 354.695L267.967 353.9H279.309C286.941 353.9 290.757 356.886 290.757 362.857C290.757 365.154 289.238 367.662 286.199 370.383C290.687 371.478 292.93 374.694 292.93 380.029C292.93 384.198 291.87 387.078 289.75 388.668C287.666 390.223 284.45 391 280.104 391H278.567L267.914 391.053L267.967 390.311L270.723 389.94C271.077 389.905 271.289 389.675 271.359 389.251V355.755C271.289 355.296 271.077 355.048 270.723 355.013L267.914 354.695ZM281.164 370.701H274.963V390.205H279.839C286.164 390.205 289.326 386.884 289.326 380.241C289.326 376.849 288.637 374.411 287.259 372.927C285.917 371.443 283.885 370.701 281.164 370.701ZM281.429 369.906C282.737 369.906 283.867 369.977 284.821 370.118C286.376 367.68 287.153 365.366 287.153 363.175C287.153 357.522 284.45 354.695 279.044 354.695H274.963V369.906H281.429ZM297.066 391.053L297.119 390.311L299.875 389.94C300.229 389.905 300.441 389.675 300.511 389.251H300.564V355.755H300.511C300.441 355.296 300.229 355.048 299.875 355.013L297.119 354.748L297.066 353.953L307.719 353.9C307.719 353.935 307.737 354.2 307.772 354.695L304.168 355.013V389.993L307.772 390.205C307.772 390.24 307.755 390.505 307.719 391L297.066 391.053ZM323.259 353.9C323.259 353.935 323.277 354.2 323.312 354.695L319.655 355.013V389.94H334.283L335.343 381.46L336.35 381.725L335.555 391H323.259L312.606 391.053L312.659 390.311L315.415 389.94C315.768 389.905 315.98 389.675 316.051 389.251V355.702C315.98 355.278 315.768 355.048 315.415 355.013L312.659 354.748L312.606 353.953L323.259 353.9ZM338.433 372.556C338.433 366.726 339.917 362.08 342.885 358.617C345.889 355.154 349.616 353.423 354.068 353.423C364.492 353.423 369.703 359.801 369.703 372.556C369.703 378.421 368.219 383.05 365.251 386.442C362.283 389.799 358.556 391.477 354.068 391.477C343.645 391.477 338.433 385.17 338.433 372.556ZM342.037 372.45C342.037 384.428 346.048 390.417 354.068 390.417C357.531 390.417 360.393 388.827 362.654 385.647C364.951 382.467 366.099 378.068 366.099 372.45C366.099 360.472 362.089 354.483 354.068 354.483C350.641 354.483 347.779 356.091 345.482 359.306C343.186 362.521 342.037 366.903 342.037 372.45ZM384.667 353.9C384.667 353.935 384.685 354.2 384.72 354.695L381.116 355.013V375.047C381.116 381.195 382.194 385.276 384.349 387.29C385.374 388.279 386.416 388.968 387.476 389.357C388.536 389.71 389.773 389.887 391.186 389.887C392.635 389.887 393.942 389.693 395.108 389.304C396.274 388.915 397.405 388.209 398.5 387.184C400.832 385.064 401.998 381.018 401.998 375.047V355.861C401.928 355.402 401.716 355.154 401.362 355.119L397.546 354.748C397.511 354.536 397.493 354.271 397.493 353.953L407.563 353.9C407.563 353.935 407.581 354.2 407.616 354.695L403.217 355.172V375.1C403.217 385.841 399.207 391.212 391.186 391.212C389.243 391.212 387.529 391.018 386.045 390.629C384.597 390.205 383.183 389.445 381.805 388.35C378.943 386.124 377.512 381.707 377.512 375.1V355.702C377.371 355.278 377.159 355.048 376.876 355.013L374.12 354.748C374.085 354.536 374.067 354.271 374.067 353.953L384.667 353.9ZM420.999 389.993C423.614 389.993 425.91 389.233 427.889 387.714C429.868 386.159 430.857 383.81 430.857 380.665C430.857 379.252 430.504 378.05 429.797 377.061C429.126 376.036 428.225 375.259 427.094 374.729C425.963 374.164 424.727 373.687 423.384 373.298C422.041 372.874 420.699 372.432 419.356 371.973C418.013 371.514 416.777 370.966 415.646 370.33C414.515 369.694 413.597 368.793 412.89 367.627C412.219 366.461 411.883 365.065 411.883 363.44C411.883 360.613 412.855 358.299 414.798 356.497C416.741 354.695 419.338 353.794 422.589 353.794C425.84 353.794 428.949 354.165 431.917 354.907L432.5 361.532L431.493 361.956L430.963 357.769C428.348 355.826 425.893 354.854 423.596 354.854C421.299 354.854 419.374 355.561 417.819 356.974C416.264 358.352 415.487 360.437 415.487 363.228C415.487 364.853 416.141 366.143 417.448 367.097C418.755 368.051 420.328 368.793 422.165 369.323C424.038 369.853 425.893 370.454 427.73 371.125C429.603 371.796 431.193 372.927 432.5 374.517C433.807 376.107 434.461 378.174 434.461 380.718C434.461 384.145 433.242 386.725 430.804 388.456C428.366 390.187 425.151 391.053 421.158 391.053C417.165 391.053 413.703 389.975 410.77 387.82L410.823 382.202L411.83 381.937L411.936 384.958C412.89 386.301 414.197 387.484 415.858 388.509C417.519 389.498 419.232 389.993 420.999 389.993Z" fill="white"/>
<line x1="48" y1="422.5" x2="502" y2="422.5" stroke="white"/>
<path d="M146.7 470.03L146.73 469.61L148.29 469.4C148.47 469.38 148.56 469.24 148.56 468.98V455.54H147.03L147.27 455.3L148.56 455.03V451.37C148.56 449.99 149.01 449 149.91 448.4C150.81 447.78 151.86 447.47 153.06 447.47C153.86 447.47 154.54 447.58 155.1 447.8L155.01 448.01C154.53 447.95 154.11 447.92 153.75 447.92C153.41 447.92 153.07 447.97 152.73 448.07C152.41 448.17 152.07 448.35 151.71 448.61C150.91 449.19 150.51 450.34 150.51 452.06V455H154.14V455.54H150.51V469.4L153.06 469.55C153.06 469.57 153.05 469.72 153.03 470L146.7 470.03ZM160.253 456.23V458.63C161.833 456.31 163.383 455.13 164.903 455.09C165.023 455.09 165.143 455.09 165.263 455.09L166.943 455.3L166.163 457.1C165.783 456.72 165.293 456.53 164.693 456.53C163.233 456.55 161.753 457.52 160.253 459.44V469.4L162.803 469.55C162.803 469.57 162.793 469.72 162.773 470L156.473 470.03C156.473 469.85 156.483 469.71 156.503 469.61L158.063 469.4C158.223 469.38 158.303 469.24 158.303 468.98V455.96C158.263 455.82 158.203 455.75 158.123 455.75L156.323 455.69L156.353 455.27C157.433 455.09 158.253 455 158.813 455C159.373 455 159.753 455.13 159.953 455.39C160.153 455.65 160.253 455.93 160.253 456.23ZM175.006 470.12C172.926 470.12 171.236 469.52 169.936 468.32C168.656 467.12 168.016 465.29 168.016 462.83C168.016 460.35 168.696 458.41 170.056 457.01C171.436 455.59 173.166 454.88 175.246 454.88C177.326 454.88 179.016 455.48 180.316 456.68C181.616 457.88 182.266 459.72 182.266 462.2C182.266 464.66 181.576 466.6 180.196 468.02C178.836 469.42 177.106 470.12 175.006 470.12ZM175.216 455.42C173.716 455.42 172.466 456.07 171.466 457.37C170.466 458.67 169.966 460.44 169.966 462.68C169.966 464.9 170.436 466.61 171.376 467.81C172.336 468.99 173.566 469.58 175.066 469.58C176.566 469.58 177.816 468.93 178.816 467.63C179.816 466.33 180.316 464.57 180.316 462.35C180.316 460.13 179.836 458.42 178.876 457.22C177.936 456.02 176.716 455.42 175.216 455.42ZM184.378 470.03L184.408 469.61L185.968 469.4C186.148 469.38 186.238 469.24 186.238 468.98V455.99C186.198 455.83 186.138 455.75 186.058 455.75L184.228 455.69L184.258 455.27C185.518 455.09 186.368 455 186.808 455C187.608 455 188.058 455.35 188.158 456.05H188.188V456.68C189.828 455.56 191.398 454.97 192.898 454.91C194.358 454.91 195.468 455.2 196.228 455.78C196.568 456.04 196.868 456.45 197.128 457.01C197.408 457.55 197.548 458.2 197.548 458.96V469.4L199.798 469.55C199.798 469.57 199.788 469.72 199.768 470L193.768 470.03C193.768 469.85 193.778 469.71 193.798 469.61L195.358 469.4C195.518 469.38 195.598 469.24 195.598 468.98V459.71C195.598 458.91 195.488 458.23 195.268 457.67C195.068 457.11 194.838 456.7 194.578 456.44C194.318 456.18 193.998 455.98 193.618 455.84C193.178 455.68 192.718 455.6 192.238 455.6C191.038 455.62 189.688 456.09 188.188 457.01V469.4L190.438 469.55C190.438 469.57 190.428 469.72 190.408 470L184.378 470.03ZM208.178 469.43L209.348 469.37L209.438 469.67C209.418 469.67 209.278 469.7 209.018 469.76C208.418 469.9 207.748 469.97 207.008 469.97C206.328 469.93 205.708 469.82 205.148 469.64C204.588 469.44 204.068 469.04 203.588 468.44C203.108 467.82 202.868 467.03 202.868 466.07V455.54H201.338L201.578 455.3L202.898 455.03L203.138 452.15L204.818 452V455H208.448V455.54H204.818V465.56C204.818 467.08 205.138 468.11 205.778 468.65C206.418 469.17 207.218 469.43 208.178 469.43ZM212.907 463.1C212.907 467.42 214.587 469.58 217.947 469.58C218.827 469.58 219.767 469.49 220.767 469.31C221.767 469.11 222.407 468.93 222.687 468.77L222.897 469.07C222.437 469.37 221.677 469.62 220.617 469.82C219.577 470.02 218.617 470.12 217.737 470.12C216.877 470.12 216.097 470.03 215.397 469.85C214.717 469.67 214.017 469.35 213.297 468.89C212.577 468.43 212.007 467.71 211.587 466.73C211.167 465.75 210.957 464.55 210.957 463.13C210.957 460.49 211.637 458.47 212.997 457.07C214.417 455.61 216.067 454.88 217.947 454.88C219.827 454.88 221.257 455.4 222.237 456.44C223.237 457.48 223.737 458.94 223.737 460.82C223.737 461.22 223.707 461.65 223.647 462.11H212.937C212.917 462.33 212.907 462.66 212.907 463.1ZM221.967 460.61C221.967 459.11 221.637 457.89 220.977 456.95C220.317 455.99 219.417 455.51 218.277 455.51C216.797 455.51 215.547 456.16 214.527 457.46C213.707 458.48 213.197 459.84 212.997 461.54H221.937C221.957 461.32 221.967 461.01 221.967 460.61ZM226.147 470.03L226.177 469.61L227.737 469.4C227.917 469.38 228.007 469.24 228.007 468.98V455.99C227.967 455.83 227.907 455.75 227.827 455.75L225.997 455.69L226.027 455.27C227.287 455.09 228.137 455 228.577 455C229.377 455 229.827 455.35 229.927 456.05H229.957V456.68C231.597 455.56 233.167 454.97 234.667 454.91C236.127 454.91 237.237 455.2 237.997 455.78C238.337 456.04 238.637 456.45 238.897 457.01C239.177 457.55 239.317 458.2 239.317 458.96V469.4L241.567 469.55C241.567 469.57 241.557 469.72 241.537 470L235.537 470.03C235.537 469.85 235.547 469.71 235.567 469.61L237.127 469.4C237.287 469.38 237.367 469.24 237.367 468.98V459.71C237.367 458.91 237.257 458.23 237.037 457.67C236.837 457.11 236.607 456.7 236.347 456.44C236.087 456.18 235.767 455.98 235.387 455.84C234.947 455.68 234.487 455.6 234.007 455.6C232.807 455.62 231.457 456.09 229.957 457.01V469.4L232.207 469.55C232.207 469.57 232.197 469.72 232.177 470L226.147 470.03ZM256.376 448.73V468.44C256.376 469.06 256.536 469.37 256.856 469.37L258.656 469.46L258.626 469.91C257.666 470.07 256.666 470.15 255.626 470.15C255.406 470.13 255.166 470.02 254.906 469.82C254.666 469.62 254.526 469.36 254.486 469.04C253.346 469.76 252.026 470.12 250.526 470.12C249.066 470.12 247.716 469.71 246.476 468.89C245.776 468.43 245.206 467.71 244.766 466.73C244.346 465.73 244.136 464.52 244.136 463.1C244.136 460.48 244.806 458.48 246.146 457.1C247.566 455.62 249.186 454.88 251.006 454.88C252.126 454.88 253.266 455.17 254.426 455.75V448.58C254.426 448.36 254.366 448.25 254.246 448.25L252.416 448.19L252.446 447.77C253.706 447.59 254.566 447.5 255.026 447.5C255.506 447.5 255.846 447.63 256.046 447.89C256.266 448.15 256.376 448.43 256.376 448.73ZM250.916 469.58C252.136 469.58 253.306 469.31 254.426 468.77V456.23C253.546 455.69 252.676 455.42 251.816 455.42C250.096 455.42 248.706 456.08 247.646 457.4C246.606 458.72 246.086 460.61 246.086 463.07C246.086 467.41 247.696 469.58 250.916 469.58ZM283.313 448.73V468.44C283.313 469.06 283.473 469.37 283.793 469.37L285.593 469.46L285.563 469.91C284.603 470.07 283.603 470.15 282.563 470.15C282.343 470.13 282.103 470.02 281.843 469.82C281.603 469.62 281.463 469.36 281.423 469.04C280.283 469.76 278.963 470.12 277.463 470.12C276.003 470.12 274.653 469.71 273.413 468.89C272.713 468.43 272.143 467.71 271.703 466.73C271.283 465.73 271.073 464.52 271.073 463.1C271.073 460.48 271.743 458.48 273.083 457.1C274.503 455.62 276.123 454.88 277.943 454.88C279.063 454.88 280.203 455.17 281.363 455.75V448.58C281.363 448.36 281.303 448.25 281.183 448.25L279.353 448.19L279.383 447.77C280.643 447.59 281.503 447.5 281.963 447.5C282.443 447.5 282.783 447.63 282.983 447.89C283.203 448.15 283.313 448.43 283.313 448.73ZM277.853 469.58C279.073 469.58 280.243 469.31 281.363 468.77V456.23C280.483 455.69 279.613 455.42 278.753 455.42C277.033 455.42 275.643 456.08 274.583 457.4C273.543 458.72 273.023 460.61 273.023 463.07C273.023 467.41 274.633 469.58 277.853 469.58ZM290.696 463.1C290.696 467.42 292.376 469.58 295.736 469.58C296.616 469.58 297.556 469.49 298.556 469.31C299.556 469.11 300.196 468.93 300.476 468.77L300.686 469.07C300.226 469.37 299.466 469.62 298.406 469.82C297.366 470.02 296.406 470.12 295.526 470.12C294.666 470.12 293.886 470.03 293.186 469.85C292.506 469.67 291.806 469.35 291.086 468.89C290.366 468.43 289.796 467.71 289.376 466.73C288.956 465.75 288.746 464.55 288.746 463.13C288.746 460.49 289.426 458.47 290.786 457.07C292.206 455.61 293.856 454.88 295.736 454.88C297.616 454.88 299.046 455.4 300.026 456.44C301.026 457.48 301.526 458.94 301.526 460.82C301.526 461.22 301.496 461.65 301.436 462.11H290.726C290.706 462.33 290.696 462.66 290.696 463.1ZM299.756 460.61C299.756 459.11 299.426 457.89 298.766 456.95C298.106 455.99 297.206 455.51 296.066 455.51C294.586 455.51 293.336 456.16 292.316 457.46C291.496 458.48 290.986 459.84 290.786 461.54H299.726C299.746 461.32 299.756 461.01 299.756 460.61ZM319.939 455C319.939 455.02 319.949 455.17 319.969 455.45L317.569 455.72L311.809 470H310.009L304.789 455.96C304.669 455.78 304.519 455.67 304.339 455.63L302.779 455.48L302.749 455.03L309.079 455C309.079 455.02 309.089 455.17 309.109 455.45L306.889 455.6L311.599 469.37L316.519 456.08C316.579 455.98 316.539 455.89 316.399 455.81C316.279 455.71 316.149 455.65 316.009 455.63L314.449 455.48L314.419 455.03L319.939 455ZM321.824 463.1C321.824 467.42 323.504 469.58 326.864 469.58C327.744 469.58 328.684 469.49 329.684 469.31C330.684 469.11 331.324 468.93 331.604 468.77L331.814 469.07C331.354 469.37 330.594 469.62 329.534 469.82C328.494 470.02 327.534 470.12 326.654 470.12C325.794 470.12 325.014 470.03 324.314 469.85C323.634 469.67 322.934 469.35 322.214 468.89C321.494 468.43 320.924 467.71 320.504 466.73C320.084 465.75 319.874 464.55 319.874 463.13C319.874 460.49 320.554 458.47 321.914 457.07C323.334 455.61 324.984 454.88 326.864 454.88C328.744 454.88 330.174 455.4 331.154 456.44C332.154 457.48 332.654 458.94 332.654 460.82C332.654 461.22 332.624 461.65 332.564 462.11H321.854C321.834 462.33 321.824 462.66 321.824 463.1ZM330.884 460.61C330.884 459.11 330.554 457.89 329.894 456.95C329.234 455.99 328.334 455.51 327.194 455.51C325.714 455.51 324.464 456.16 323.444 457.46C322.624 458.48 322.114 459.84 321.914 461.54H330.854C330.874 461.32 330.884 461.01 330.884 460.61ZM335.364 470.03L335.394 469.61L336.954 469.4C337.094 469.38 337.184 469.28 337.224 469.1V448.58C337.224 448.36 337.164 448.25 337.044 448.25L335.214 448.19L335.244 447.77C336.504 447.59 337.364 447.5 337.824 447.5C338.304 447.5 338.644 447.63 338.844 447.89C339.064 448.15 339.174 448.43 339.174 448.73V469.4L341.424 469.55C341.424 469.57 341.414 469.72 341.394 470L335.364 470.03ZM351.253 470.12C349.173 470.12 347.483 469.52 346.183 468.32C344.903 467.12 344.263 465.29 344.263 462.83C344.263 460.35 344.943 458.41 346.303 457.01C347.683 455.59 349.413 454.88 351.493 454.88C353.573 454.88 355.263 455.48 356.563 456.68C357.863 457.88 358.513 459.72 358.513 462.2C358.513 464.66 357.823 466.6 356.443 468.02C355.083 469.42 353.353 470.12 351.253 470.12ZM351.463 455.42C349.963 455.42 348.713 456.07 347.713 457.37C346.713 458.67 346.213 460.44 346.213 462.68C346.213 464.9 346.683 466.61 347.623 467.81C348.583 468.99 349.813 469.58 351.313 469.58C352.813 469.58 354.063 468.93 355.063 467.63C356.063 466.33 356.563 464.57 356.563 462.35C356.563 460.13 356.083 458.42 355.123 457.22C354.183 456.02 352.963 455.42 351.463 455.42ZM360.925 477.5L360.955 477.08L362.515 476.87C362.695 476.85 362.785 476.71 362.785 476.45V455.99C362.745 455.83 362.685 455.75 362.605 455.75L360.775 455.69L360.805 455.27C362.065 455.09 362.925 455 363.385 455C363.845 455 364.175 455.12 364.375 455.36C364.575 455.58 364.695 455.83 364.735 456.11C365.995 455.19 367.335 454.73 368.755 454.73C370.115 454.73 371.395 455.15 372.595 455.99C373.235 456.45 373.745 457.17 374.125 458.15C374.525 459.13 374.725 460.32 374.725 461.72C374.725 464.38 374.065 466.38 372.745 467.72C371.245 469.24 369.305 470 366.925 470C366.225 470 365.495 469.95 364.735 469.85V476.87L367.285 477.02C367.265 477.3 367.255 477.45 367.255 477.47L360.925 477.5ZM364.735 456.71V469.22C365.315 469.36 365.945 469.43 366.625 469.43C368.585 469.43 370.095 468.77 371.155 467.45C372.235 466.11 372.775 464.25 372.775 461.87C372.775 459.15 372.235 457.32 371.155 456.38C370.315 455.64 369.375 455.27 368.335 455.27C367.295 455.27 366.095 455.75 364.735 456.71ZM379.391 463.1C379.391 467.42 381.071 469.58 384.431 469.58C385.311 469.58 386.251 469.49 387.251 469.31C388.251 469.11 388.891 468.93 389.171 468.77L389.381 469.07C388.921 469.37 388.161 469.62 387.101 469.82C386.061 470.02 385.101 470.12 384.221 470.12C383.361 470.12 382.581 470.03 381.881 469.85C381.201 469.67 380.501 469.35 379.781 468.89C379.061 468.43 378.491 467.71 378.071 466.73C377.651 465.75 377.441 464.55 377.441 463.13C377.441 460.49 378.121 458.47 379.481 457.07C380.901 455.61 382.551 454.88 384.431 454.88C386.311 454.88 387.741 455.4 388.721 456.44C389.721 457.48 390.221 458.94 390.221 460.82C390.221 461.22 390.191 461.65 390.131 462.11H379.421C379.401 462.33 379.391 462.66 379.391 463.1ZM388.451 460.61C388.451 459.11 388.121 457.89 387.461 456.95C386.801 455.99 385.901 455.51 384.761 455.51C383.281 455.51 382.031 456.16 381.011 457.46C380.191 458.48 379.681 459.84 379.481 461.54H388.421C388.441 461.32 388.451 461.01 388.451 460.61ZM396.411 456.23V458.63C397.991 456.31 399.541 455.13 401.061 455.09C401.181 455.09 401.301 455.09 401.421 455.09L403.101 455.3L402.321 457.1C401.941 456.72 401.451 456.53 400.851 456.53C399.391 456.55 397.911 457.52 396.411 459.44V469.4L398.961 469.55C398.961 469.57 398.951 469.72 398.931 470L392.631 470.03C392.631 469.85 392.641 469.71 392.661 469.61L394.221 469.4C394.381 469.38 394.461 469.24 394.461 468.98V455.96C394.421 455.82 394.361 455.75 394.281 455.75L392.481 455.69L392.511 455.27C393.591 455.09 394.411 455 394.971 455C395.531 455 395.911 455.13 396.111 455.39C396.311 455.65 396.411 455.93 396.411 456.23Z" fill="white"/>
</svg>
