<svg width="550" height="550" viewBox="0 0 550 550" fill="none" xmlns="http://www.w3.org/2000/svg">
<rect width="550" height="550"/>
<path d="M317.977 97.9C317.977 98.042 318.048 99.107 318.19 101.095L306.049 102.16L260.467 196.732V242.953L276.016 243.805C276.016 243.947 275.945 245.012 275.803 247L233.203 247.213C233.203 245.935 233.274 244.941 233.416 244.231L244.492 242.74C245.912 242.598 246.764 241.675 247.048 239.971V196.732L199.123 103.225C198.555 102.799 197.987 102.444 197.419 102.16L188.473 101.308C188.331 100.456 188.26 99.391 188.26 98.113L231.286 97.9C231.286 98.042 231.357 99.107 231.499 101.095L214.033 102.586L258.124 193.111L297.955 105.781C297.955 104.077 297.316 103.154 296.038 103.012L276.655 101.308C276.513 100.456 276.442 99.391 276.442 98.113L317.977 97.9Z" fill="black"/>
<path d="M263.65 142.095L263.863 138.9H309.445C340.117 138.9 355.453 150.899 355.453 174.897C355.453 184.127 349.347 194.209 337.135 205.143C355.169 209.545 364.186 222.467 364.186 243.909C364.186 260.665 359.926 272.238 351.406 278.628C343.028 284.876 330.106 288 312.64 288H306.463L263.65 288.213L263.863 285.231L274.939 283.74C276.359 283.598 277.211 282.675 277.495 280.971V146.355C277.211 144.509 276.359 143.515 274.939 143.373L263.65 142.095ZM316.9 206.421H291.979V284.805H311.575C336.993 284.805 349.702 271.457 349.702 244.761C349.702 231.129 346.933 221.331 341.395 215.367C335.999 209.403 327.834 206.421 316.9 206.421ZM317.965 203.226C323.219 203.226 327.763 203.51 331.597 204.078C337.845 194.28 340.969 184.979 340.969 176.175C340.969 153.455 330.106 142.095 308.38 142.095H291.979V203.226H317.965Z" fill="black"/>
</svg>
