<?xml version="1.0" encoding="UTF-8"?>
<svg xmlns="http://www.w3.org/2000/svg" xmlns:xlink="http://www.w3.org/1999/xlink" width="0" height="0">
<symbol id="telegram" enable-background="new 0 0 24 24" viewBox="0 0 24 24"><path d="m12 24c6.629 0 12-5.371 12-12s-5.371-12-12-12-12 5.371-12 12 5.371 12 12 12zm-6.509-12.26 11.57-4.461c.537-.194 1.006.131.832.943l.001-.001-1.97 9.281c-.146.658-.537.818-1.084.508l-3-2.211-1.447 1.394c-.16.16-.295.295-.605.295l.213-3.053 5.56-5.023c.242-.213-.054-.333-.373-.121l-6.871 4.326-2.962-.924c-.643-.204-.657-.643.136-.953z"></path></symbol>
<symbol id="linked" viewBox="0 0 32 32"><path d="M32 31.292V19.46c0-6.34-3.384-9.29-7.896-9.29-3.641 0-5.273 2.003-6.182 3.409v-2.924h-6.86c.091 1.937 0 20.637 0 20.637h6.86V19.767c0-.615.044-1.232.226-1.672.495-1.233 1.624-2.509 3.518-2.509 2.483 0 3.475 1.892 3.475 4.666v11.041H32v-.001zM3.835 7.838c2.391 0 3.882-1.586 3.882-3.567C7.673 2.247 6.227.707 3.881.707S0 2.246 0 4.271c0 1.981 1.489 3.567 3.792 3.567h.043zm3.43 23.454V10.655H.406v20.637h6.859z"></path></symbol>
<symbol id="gitlab" fill-rule="evenodd" stroke-linejoin="round" stroke-miterlimit="2" clip-rule="evenodd" viewBox="0 0 24 24"><g transform="translate(-40 -40)"><rect width="24" height="24" x="40" y="40" fill="none"></rect><path fill="#2c2c2c" d="M474.334,389.595L476.54,382.806C476.546,382.788 476.552,382.771 476.558,382.754C476.752,382.262 477.23,381.937 477.758,381.937C478.08,381.937 478.39,382.057 478.628,382.274C478.634,382.28 478.64,382.286 478.647,382.292C478.803,382.443 478.919,382.632 478.976,382.823L480.985,388.989L487.018,388.989L489.027,382.806C489.033,382.788 489.039,382.771 489.046,382.754C489.239,382.262 489.717,381.937 490.246,381.937C490.567,381.937 490.878,382.057 491.115,382.274C491.121,382.28 491.128,382.286 491.134,382.292C491.291,382.443 491.406,382.632 491.464,382.824C491.464,382.824 493.511,389.125 493.663,389.592C493.667,389.604 493.671,389.615 493.674,389.627L494.823,393.027C494.827,393.039 494.831,393.051 494.834,393.063C495.035,393.753 494.766,394.497 494.174,394.9L484.531,401.909L484.509,401.924L484.486,401.939L484.48,401.943C484.425,401.977 484.368,402.005 484.308,402.027L484.275,402.038L484.252,402.045C484.191,402.063 484.128,402.074 484.063,402.078L484.034,402.08L484.011,402.08L483.984,402.08L483.956,402.079L483.941,402.078C483.876,402.074 483.813,402.063 483.752,402.045L483.719,402.035L483.696,402.027C483.636,402.005 483.578,401.977 483.523,401.943L483.5,401.927L483.48,401.914L483.473,401.909C483.473,401.909 473.822,394.895 473.818,394.892C473.24,394.467 473,393.714 473.223,393.038L474.323,389.63C474.326,389.618 474.33,389.606 474.334,389.595ZM474.965,393.5L482.289,398.823L480.162,392.278C480.008,391.806 480.267,391.298 480.739,391.144C481.212,390.991 481.72,391.249 481.874,391.722L484.002,398.269L486.13,391.722C486.284,391.249 486.792,390.991 487.264,391.144C487.737,391.298 487.996,391.806 487.842,392.278L485.715,398.823L493.074,393.475L492.167,390.789L475.84,390.789L474.965,393.5ZM488.911,388.989L491.575,388.989L490.243,384.89L488.911,388.989ZM476.423,388.989L479.092,388.989L477.756,384.888L476.423,388.989Z" transform="translate(-432 -340)"></path></g></symbol>
<symbol id="github" enable-background="new 0 0 28 27.311" viewBox="0 0 28 27.311"><path d="M28,14c0-7.732-6.268-14-14-14S0,6.268,0,14c0,6.221,4.061,11.488,9.674,13.311c0.767-0.235,0.803-0.702,0.803-0.702s0-1.383,0-2.661c-0.843,0.155-1.89,0.157-2.271,0.157c-0.464,0-2.009-0.386-2.689-2.132c-0.68-1.746-1.947-1.916-1.947-2.225s0.278-0.371,0.278-0.371s0.17,0,0.927,0c0.757,0,1.514,1.267,2.04,2.04s1.792,0.927,2.411,0.927c0.347,0,0.885-0.175,1.294-0.329c0.167-1.082,0.792-1.896,0.792-1.896c-6.243-0.556-6.397-5.223-6.397-7.046c0-1.823,1.484-3.616,1.484-3.616s-0.719-2.04,0.185-3.709c1.947,0.015,3.894,1.483,3.894,1.483S12.238,6.676,14,6.676s3.523,0.556,3.523,0.556s1.947-1.468,3.894-1.483c0.904,1.669,0.185,3.709,0.185,3.709s1.484,1.792,1.484,3.616c0,1.823-0.155,6.49-6.397,7.046c0,0,0.834,1.082,0.834,2.411s0,4.08,0,4.08s0.035,0.466,0.803,0.702C23.939,25.488,28,20.221,28,14z"></path></symbol>
<symbol id="mail" viewBox="0 0 16 16"><path d="M14.5 2h-13A1.5 1.5 0 0 0 0 3.5v9A1.5 1.5 0 0 0 1.5 14h13a1.5 1.5 0 0 0 1.5-1.5v-9A1.5 1.5 0 0 0 14.5 2zm-1.766 1L8 6.738 3.266 3h9.468zM2 13V4.646l6 4.615 6-4.616V13H2z"></path></symbol>
<symbol id="share" width="128" height="128" fill="none" viewBox="0 0 128 128"><circle cx="88" cy="40" r="12" stroke="#000" stroke-width="6"></circle><circle cx="88" cy="87" r="12" stroke="#000" stroke-width="6"></circle><circle cx="40" cy="64" r="12" stroke="#000" stroke-width="6"></circle><path stroke="#000" stroke-linecap="round" stroke-linejoin="round" stroke-width="6" d="M78 49L52 64M52 64L78 79"></path></symbol>
</svg>

